<?xml version="1.0" standalone="no"?>
<!DOCTYPE svg PUBLIC "-//W3C//DTD SVG 20010904//EN"
 "http://www.w3.org/TR/2001/REC-SVG-20010904/DTD/svg10.dtd">
<svg version="1.0" xmlns="http://www.w3.org/2000/svg"
 width="1576.000000pt" height="1576.000000pt" viewBox="0 0 1576.000000 1576.000000"
 preserveAspectRatio="xMidYMid meet">
<metadata>
Created by potrace 1.15, written by Peter Selinger 2001-2017
</metadata>
<g transform="translate(0.000000,1576.000000) scale(0.100000,-0.100000)"
fill="#303F9F" stroke="none">
<path d="M2705 15753 c-127 -11 -347 -49 -478 -82 -1052 -269 -1869 -1086
-2138 -2137 -21 -83 -48 -216 -61 -295 l-23 -144 0 -5215 0 -5215 23 -142
c136 -858 605 -1581 1329 -2053 338 -221 743 -372 1178 -442 137 -21 162 -22
1195 -25 580 -2 1102 -3 1160 -1 l105 3 -51 27 c-72 38 -196 133 -285 220
-433 420 -765 1144 -948 2063 -87 436 -129 780 -173 1420 -8 126 -12 1615 -15
5700 l-3 5530 227 -226 c126 -124 1540 -1526 3143 -3115 l2915 -2889 3 -960 2
-960 -402 401 c-222 221 -1355 1348 -2518 2504 l-2115 2102 -3 -2824 c-3
-3199 2 -3604 53 -4368 145 -2122 603 -3371 1479 -4029 355 -267 824 -465
1381 -581 l100 -21 2650 3 2650 3 130 22 c684 113 1211 377 1676 842 505 506
802 1145 859 1853 8 93 10 1663 8 5248 l-3 5115 -23 140 c-57 351 -145 624
-297 925 -111 218 -251 425 -406 600 -473 534 -1080 867 -1785 982 -138 22
-150 22 -1314 25 l-1175 3 50 -26 c143 -76 327 -239 466 -414 558 -699 881
-1850 949 -3380 8 -173 10 -1849 8 -5688 l-3 -5443 -3140 3113 -3140 3113 -3
960 -2 960 217 -216 c120 -119 1253 -1245 2517 -2503 1264 -1257 2303 -2286
2308 -2286 11 0 10 5284 -2 5950 -12 708 -34 1135 -81 1640 -176 1887 -625
3009 -1451 3626 -344 257 -765 438 -1298 559 l-155 35 -2625 -2 c-1444 -1
-2643 -3 -2665 -5z"/>
</g>
</svg>
