<?xml version="1.0" standalone="no"?>
<!DOCTYPE svg PUBLIC "-//W3C//DTD SVG 20010904//EN"
 "http://www.w3.org/TR/2001/REC-SVG-20010904/DTD/svg10.dtd">
<svg version="1.0" xmlns="http://www.w3.org/2000/svg"
 width="1231.000000pt" height="1576.000000pt" viewBox="0 0 1231.000000 1576.000000"
 preserveAspectRatio="xMidYMid meet">
<metadata>
Created by potrace 1.15, written by Peter Selinger 2001-2017
</metadata>
<g transform="translate(0.000000,1576.000000) scale(0.100000,-0.100000)"
fill="#303F9F" stroke="none">
<path d="M3152 15701 l-104 -59 -53 23 c-61 27 -147 50 -222 59 -112 14 -269
-34 -349 -107 l-40 -35 -82 10 c-146 19 -274 -15 -370 -98 -42 -35 -44 -36
-110 -32 -87 6 -259 -8 -336 -28 -108 -28 -185 -71 -258 -145 l-67 -68 -104 0
c-186 0 -315 -47 -407 -148 -106 -116 -126 -289 -55 -467 l24 -59 -34 -56
c-48 -77 -66 -135 -66 -208 0 -99 38 -205 120 -336 l42 -65 -25 -37 c-75 -111
-25 -286 124 -435 l79 -79 -11 -81 c-24 -163 26 -301 158 -433 43 -42 81 -77
86 -77 4 0 8 -28 8 -63 0 -140 54 -233 240 -416 113 -111 130 -132 145 -181
65 -206 200 -331 449 -418 76 -26 79 -29 91 -67 53 -178 174 -279 418 -350
l108 -32 -108 -63 c-407 -237 -706 -512 -903 -829 -227 -366 -350 -816 -366
-1346 l-6 -180 -61 -93 c-42 -64 -75 -103 -106 -125 -187 -127 -406 -356 -560
-587 -379 -565 -523 -1252 -395 -1888 70 -353 257 -740 502 -1044 l71 -87 21
-118 c32 -181 92 -401 190 -698 57 -171 97 -313 110 -385 51 -279 123 -499
246 -742 181 -361 436 -672 759 -928 176 -139 406 -274 555 -325 51 -18 94
-45 204 -134 365 -291 802 -543 1261 -727 l170 -67 95 -88 c324 -301 661 -504
1040 -629 255 -85 448 -118 735 -126 549 -17 1057 129 1520 438 151 100 226
160 384 301 l113 102 162 66 c514 210 892 429 1290 747 95 76 133 101 188 119
137 46 321 151 508 291 133 100 414 375 512 502 279 362 453 755 533 1200 20
110 47 201 149 490 68 195 148 434 177 530 l53 175 79 90 c341 388 540 801
613 1270 23 149 23 459 0 610 -68 442 -240 841 -517 1190 -128 164 -312 336
-467 439 -60 40 -83 63 -131 135 l-58 86 -6 167 c-36 909 -326 1508 -963 1986
-90 67 -279 191 -361 238 -29 16 -53 31 -53 34 0 3 45 18 100 34 187 53 293
118 360 218 22 34 48 87 58 118 l16 57 71 23 c102 33 233 103 297 160 68 61
107 121 147 225 29 74 35 82 79 106 133 74 252 194 311 313 33 67 61 170 61
226 0 31 8 41 61 83 72 58 139 146 171 225 19 47 23 76 23 172 l1 115 48 73
c122 186 167 345 136 479 -10 41 -8 45 38 116 104 159 117 291 48 488 l-37
105 26 67 c70 188 47 359 -65 481 -78 84 -194 126 -350 127 l-96 0 -43 51
c-112 129 -287 189 -552 190 l-136 0 -17 29 c-22 38 -72 75 -127 94 -51 18
-206 21 -286 6 -50 -10 -55 -9 -136 33 -147 75 -311 114 -427 101 -73 -9 -192
-41 -239 -65 l-38 -19 -46 33 c-92 66 -141 81 -257 81 l-105 0 -130 -56 -130
-57 -70 18 c-144 38 -261 22 -378 -53 -120 -77 -128 -79 -282 -81 -118 -1
-148 -5 -194 -23 -82 -33 -149 -82 -257 -187 l-99 -96 -88 0 c-88 0 -89 0
-160 -46 -212 -137 -415 -361 -592 -654 -70 -116 -207 -390 -261 -522 -21 -54
-41 -98 -44 -98 -3 0 -25 55 -49 123 -178 502 -418 854 -736 1082 -136 97
-180 115 -282 115 l-88 0 -90 91 c-99 100 -176 157 -257 191 -45 19 -73 22
-195 24 -156 2 -139 -4 -298 88 -44 26 -96 51 -115 56 -55 15 -168 11 -246 -9
-64 -16 -74 -17 -100 -3 -116 61 -264 102 -366 102 -58 0 -71 -5 -166 -59z
m-274 -407 c174 -41 288 -94 462 -214 82 -57 84 -57 116 16 18 43 6 79 -51
160 -26 36 -45 67 -43 69 2 2 55 -20 116 -50 121 -58 216 -118 377 -234 l100
-73 37 41 c46 53 63 118 48 185 -6 27 -9 51 -6 53 11 12 290 -249 358 -335 47
-59 52 -62 72 -49 46 30 58 73 51 182 l-7 100 27 -25 c69 -63 324 -344 384
-422 36 -49 72 -88 78 -88 27 0 45 50 51 142 l7 93 79 -90 c360 -410 591 -886
613 -1265 20 -344 -132 -605 -458 -789 l-56 -31 -122 100 c-721 591 -1671
1098 -2723 1455 -121 41 -225 75 -232 75 -6 0 102 -60 240 -134 944 -503 1626
-939 2129 -1360 153 -128 455 -424 455 -446 0 -9 -11 -50 -25 -90 -161 -473
-620 -774 -1320 -866 -139 -18 -517 -25 -590 -10 l-40 8 36 21 c78 48 129 104
129 143 0 32 -37 40 -254 54 -98 6 -215 17 -260 25 -90 16 -213 52 -180 54 45
2 115 34 158 73 50 44 55 53 29 61 -62 19 -393 141 -468 172 -104 43 -159 73
-234 130 l-55 40 75 7 c71 7 205 43 214 58 2 4 -60 40 -138 80 -237 122 -540
305 -561 339 -3 5 36 10 92 13 98 4 177 28 177 55 0 6 -46 46 -102 90 -55 43
-159 125 -231 183 -71 58 -142 115 -158 127 l-29 22 143 0 c78 1 142 5 142 9
0 7 -112 138 -278 324 -82 91 -199 254 -190 264 3 2 22 -3 44 -12 56 -25 184
-24 252 1 28 10 52 22 52 26 0 20 -54 67 -163 140 -141 95 -239 190 -285 278
l-33 61 151 0 152 0 -7 33 c-19 85 -95 261 -184 425 l-51 92 360 0 c198 0 360
2 360 5 0 3 -38 56 -84 118 -74 97 -83 113 -68 121 9 6 96 12 192 14 192 5
312 -9 479 -53 95 -26 115 -25 131 6 26 47 1 102 -71 159 -28 22 -48 40 -45
40 12 0 425 -110 521 -139 90 -27 101 -28 117 -14 26 23 32 67 13 103 -9 17
-56 63 -105 101 -50 39 -90 73 -90 76 0 7 53 -3 178 -33z m6096 24 c-4 -7 -22
-33 -39 -58 -72 -101 -79 -145 -32 -204 l23 -28 73 47 c40 26 110 64 154 85
140 65 487 178 487 159 0 -6 -38 -49 -85 -95 -47 -47 -88 -96 -91 -109 -9 -37
-1 -80 16 -79 8 1 78 20 155 42 77 23 218 61 314 86 l174 45 -82 -83 c-44 -46
-81 -89 -81 -95 0 -14 45 -61 58 -61 5 0 54 13 108 29 196 58 269 73 379 78
91 5 125 2 194 -16 46 -11 87 -23 90 -26 3 -3 -35 -46 -84 -95 l-90 -90 363 0
c199 0 362 -3 362 -6 0 -4 -31 -50 -69 -103 -106 -147 -157 -235 -190 -328
-17 -46 -31 -91 -31 -99 0 -11 25 -14 145 -14 111 0 145 -3 145 -13 0 -28 -75
-166 -126 -233 -30 -40 -96 -107 -147 -150 -147 -126 -158 -143 -107 -169 59
-31 168 -27 298 11 l24 7 -20 -39 c-50 -98 -155 -216 -357 -401 l-109 -101 34
-21 c42 -25 115 -28 186 -6 27 8 53 15 58 15 17 0 -38 -52 -239 -225 -110 -95
-217 -190 -238 -212 l-39 -40 49 -24 c37 -18 69 -24 146 -27 53 -3 97 -8 97
-12 0 -11 -133 -111 -213 -159 -37 -23 -163 -89 -280 -147 -117 -59 -213 -108
-215 -109 -2 -2 4 -14 13 -28 24 -38 66 -50 142 -44 l66 5 -49 -31 c-117 -73
-420 -198 -586 -242 -38 -10 -68 -21 -68 -25 0 -15 83 -82 124 -101 22 -10 55
-19 71 -20 27 -1 24 -4 -32 -31 -89 -42 -220 -66 -438 -78 -371 -21 -416 -60
-229 -197 l66 -48 -94 -3 c-51 -2 -176 2 -278 8 -505 29 -886 133 -1164 317
-102 68 -238 203 -305 303 -57 86 -106 189 -134 287 l-15 51 186 184 c283 278
541 481 977 773 431 289 994 618 1572 920 51 27 91 50 89 52 -8 8 -674 -254
-976 -385 -833 -361 -1494 -745 -2010 -1170 l-85 -70 -30 15 c-77 40 -178 118
-248 193 -83 89 -152 210 -183 325 -25 92 -30 294 -9 417 29 182 124 432 242
636 91 159 242 357 378 497 l88 90 13 -60 c13 -60 47 -161 56 -170 6 -7 105
102 299 330 80 94 153 176 162 184 16 12 16 7 11 -76 -6 -77 -4 -94 14 -128
11 -22 29 -48 40 -58 19 -18 21 -17 65 45 51 71 130 156 198 211 47 38 206
137 220 137 4 0 -2 -17 -12 -37 -22 -44 -25 -113 -5 -151 8 -15 32 -45 55 -66
l40 -39 118 84 c211 149 273 187 403 245 87 39 83 38 74 22z m-2605 -4004
c573 -84 1149 -433 1335 -810 266 -538 -296 -1015 -1288 -1094 -492 -39 -950
34 -1311 209 -198 95 -342 200 -440 318 -243 293 -204 553 128 869 271 258
693 454 1096 509 135 18 353 18 480 -1z m-2459 -314 c168 -18 251 -32 266 -47
81 -82 -240 -491 -771 -983 -544 -503 -1064 -900 -1388 -1060 -192 -95 -292
-110 -337 -53 -18 23 -20 40 -20 188 0 477 137 898 404 1240 85 108 261 275
376 357 113 80 307 182 444 233 159 59 403 113 581 128 90 8 356 6 445 -3z
m4900 -75 c804 -124 1377 -631 1564 -1385 41 -166 57 -291 63 -500 6 -222 2
-243 -53 -266 -179 -75 -861 374 -1619 1067 -289 263 -617 609 -745 783 -97
133 -137 251 -92 275 15 8 183 33 307 45 92 9 475 -3 575 -19z m-695 -1555
c353 -41 693 -190 982 -433 445 -374 743 -995 769 -1607 21 -471 -136 -916
-428 -1210 -189 -190 -393 -292 -683 -342 -161 -27 -435 -22 -599 11 -436 89
-849 334 -1131 671 -254 306 -412 619 -480 955 -163 805 196 1585 856 1859
215 89 472 123 714 96z m-3490 -85 c304 -53 595 -230 792 -482 406 -520 439
-1309 84 -2023 -112 -223 -216 -373 -381 -543 -172 -179 -337 -301 -545 -402
-619 -303 -1296 -217 -1730 219 -300 301 -447 709 -432 1196 11 335 83 618
239 938 83 170 172 293 335 463 196 203 397 352 628 465 348 170 683 226 1010
169z m6114 -1015 c429 -252 722 -639 840 -1105 53 -214 70 -509 42 -725 -42
-321 -149 -618 -310 -861 -78 -119 -230 -285 -278 -305 -215 -90 -456 264
-621 911 -102 400 -154 802 -155 1200 0 409 56 676 175 827 79 100 198 123
307 58z m-9152 -46 c127 -74 208 -334 222 -709 24 -675 -117 -1476 -344 -1951
-64 -136 -116 -214 -184 -277 -63 -59 -104 -77 -173 -77 l-53 0 -100 102
c-238 243 -395 566 -467 958 -26 140 -31 493 -10 625 48 290 160 570 320 795
124 176 363 398 555 516 63 39 78 44 131 44 46 0 69 -6 103 -26z m4739 -2235
c261 -25 490 -89 709 -199 459 -230 768 -613 882 -1090 37 -157 43 -418 14
-589 -101 -593 -533 -1079 -1137 -1280 -476 -159 -992 -122 -1449 103 -477
235 -811 634 -921 1104 -31 131 -44 400 -25 534 75 530 407 979 906 1228 323
161 663 224 1021 189z m3979 -539 c99 -14 225 -77 267 -133 40 -54 120 -221
152 -318 141 -422 164 -929 60 -1343 -69 -276 -170 -479 -364 -728 -95 -123
-360 -384 -476 -470 -342 -253 -682 -378 -1034 -379 -75 0 -154 2 -175 6 -312
50 -486 173 -559 395 -35 107 -46 186 -46 344 0 328 94 684 280 1061 161 326
327 548 670 898 320 327 616 536 886 626 135 45 227 56 339 41z m-8015 -405
c339 -79 687 -291 1016 -619 240 -240 393 -444 504 -671 168 -345 251 -704
237 -1020 -14 -305 -117 -512 -290 -583 -129 -53 -212 -67 -402 -66 -135 0
-191 5 -273 22 -479 103 -902 388 -1239 836 -192 256 -361 717 -402 1098 -46
420 65 791 278 928 145 93 367 122 571 75z m4465 -2940 c640 -84 1134 -336
1135 -580 0 -220 -568 -688 -1088 -894 -121 -48 -279 -94 -401 -117 -119 -22
-433 -30 -557 -14 -422 52 -884 280 -1216 599 -261 250 -300 393 -149 540 260
253 964 453 1706 485 154 7 451 -3 570 -19z"/>
</g>
</svg>
