<?xml version="1.0" standalone="no"?>
<!DOCTYPE svg PUBLIC "-//W3C//DTD SVG 20010904//EN"
 "http://www.w3.org/TR/2001/REC-SVG-20010904/DTD/svg10.dtd">
<svg version="1.0" xmlns="http://www.w3.org/2000/svg"
 viewBox="0 0 800.000000 165.000000"
 preserveAspectRatio="xMidYMid meet">
<metadata>
Created by potrace 1.15, written by Peter Selinger 2001-2017
</metadata>
<g transform="translate(0.000000,165.000000) scale(0.100000,-0.100000)"
fill="#303F9F" stroke="none">
<path d="M689 1635 c-69 -14 -129 -39 -129 -54 0 -22 35 -29 166 -35 160 -8
267 -27 304 -54 75 -56 -3 -186 -213 -352 -173 -138 -197 -160 -197 -182 0
-19 4 -20 42 -15 103 14 327 157 456 291 98 102 127 158 127 245 0 61 -1 64
-38 97 -65 55 -112 67 -292 70 -108 2 -182 -1 -226 -11z"/>
<path d="M1263 1099 c-150 -19 -243 -98 -228 -194 9 -61 63 -144 198 -306 129
-154 153 -193 143 -233 -10 -41 -79 -55 -326 -67 -118 -6 -222 -15 -232 -20
-24 -13 -23 -36 3 -50 29 -15 181 -36 319 -44 259 -15 424 44 446 161 14 75
-22 139 -179 321 -134 155 -169 208 -165 247 5 54 49 67 254 75 137 6 179 11
191 23 14 14 13 18 -5 36 -22 22 -83 37 -217 52 -100 11 -113 11 -202 -1z"/>
<path d="M450 874 c-70 -9 -195 -36 -227 -49 -37 -16 -43 -39 -14 -55 11 -5
78 -10 150 -10 215 0 353 -29 380 -78 41 -77 -39 -207 -206 -335 -122 -94
-283 -163 -283 -123 0 30 47 130 124 266 78 138 90 181 53 188 -29 6 -101 -76
-209 -238 -111 -167 -218 -365 -218 -403 0 -25 3 -27 46 -27 80 0 231 52 409
142 218 110 381 253 454 398 85 170 44 255 -147 304 -62 16 -246 28 -312 20z"/>
<path d="M2100 838 c-52 -36 -73 -71 -78 -132 -7 -85 15 -115 168 -221 71 -50
131 -95 134 -102 3 -7 -2 -19 -10 -28 -12 -12 -44 -15 -163 -15 -101 0 -151
-4 -159 -12 -7 -7 -12 -38 -12 -70 l0 -58 169 0 c181 0 219 7 264 49 44 40 60
80 60 144 0 77 -12 93 -169 204 -71 51 -129 98 -129 105 0 10 33 14 140 15 77
2 149 5 161 8 26 6 44 45 44 95 l0 40 -194 0 c-184 0 -195 -1 -226 -22z"/>
<path d="M2819 845 c-156 -50 -260 -208 -262 -401 -1 -69 3 -89 26 -136 55
-113 194 -162 359 -127 159 34 266 154 300 339 26 139 -22 258 -127 313 -52
28 -226 34 -296 12z m208 -125 c51 -31 67 -71 60 -160 -11 -153 -67 -238 -171
-260 -92 -19 -162 5 -191 66 -33 70 -6 226 52 302 51 68 180 95 250 52z"/>
<path d="M3395 848 c-5 -17 -115 -623 -115 -637 0 -8 77 -11 234 -11 l234 0 6
23 c3 12 6 36 6 53 0 41 -11 44 -172 44 -98 0 -128 3 -128 13 0 7 20 124 45
259 25 136 45 251 45 257 0 16 -149 15 -155 -1z"/>
<path d="M3945 848 c-6 -19 -115 -621 -115 -636 0 -10 19 -12 77 -10 l76 3 59
315 c32 173 58 321 58 328 0 8 -22 12 -75 12 -52 0 -77 -4 -80 -12z"/>
<path d="M4207 853 c-14 -14 -6 -64 13 -83 18 -18 33 -20 181 -20 193 0 219
-8 245 -76 39 -101 -27 -293 -117 -339 -21 -12 -53 -15 -117 -13 l-88 3 27
150 c16 83 30 162 33 178 l6 27 -75 0 c-40 0 -77 -5 -80 -10 -8 -12 -85 -424
-85 -452 0 -19 6 -20 198 -16 175 4 203 7 254 27 135 53 228 215 228 395 0
102 -42 174 -124 212 -49 23 -60 24 -272 24 -121 0 -224 -3 -227 -7z"/>
<path d="M4940 531 l0 -331 48 0 c62 0 67 6 168 187 74 133 94 162 94 131 0
-7 14 -82 31 -165 l32 -153 42 0 c22 0 49 6 58 12 22 17 277 590 277 623 0 22
-4 25 -33 25 l-33 0 -124 -280 -124 -280 -28 127 c-40 187 -45 202 -72 209
-56 14 -65 5 -160 -159 l-91 -157 -5 267 -5 268 -37 3 -38 3 0 -330z"/>
<path d="M5923 842 c-102 -41 -177 -124 -221 -243 -63 -171 -24 -330 98 -399
39 -22 57 -25 140 -25 83 0 102 3 151 28 142 69 226 226 217 408 -4 75 -8 94
-34 135 -18 30 -48 60 -78 79 -44 27 -59 30 -140 32 -68 2 -102 -2 -133 -15z
m172 -63 c56 -16 92 -44 116 -92 18 -34 21 -54 17 -121 -10 -185 -126 -316
-281 -316 -141 0 -213 94 -188 244 25 149 100 242 226 282 51 16 61 16 110 3z"/>
<path d="M6461 808 c-18 -89 -111 -589 -111 -599 0 -5 18 -9 39 -9 l40 0 10
53 c14 69 41 218 41 224 0 2 28 3 62 1 l62 -3 80 -137 c78 -134 81 -138 113
-138 21 0 36 6 39 15 4 8 -25 67 -65 137 -71 120 -75 137 -33 138 43 0 123 65
153 122 27 53 26 146 -2 182 -42 53 -70 60 -251 64 l-166 4 -11 -54z m318 -39
c55 -19 67 -76 30 -136 -34 -54 -87 -75 -209 -81 l-107 -5 21 117 21 116 106
0 c58 0 120 -5 138 -11z"/>
<path d="M7080 852 c0 -8 -105 -576 -116 -625 -6 -28 -5 -28 37 -25 l44 3 25
137 25 136 128 -139 c117 -127 132 -139 163 -139 61 0 45 32 -91 180 -69 74
-125 138 -125 141 0 3 73 68 163 143 89 76 166 145 170 153 14 24 0 43 -33 43
-25 0 -58 -23 -168 -117 -75 -64 -149 -127 -163 -140 l-26 -24 23 128 c17 92
20 130 12 140 -11 14 -68 18 -68 5z"/>
<path d="M7653 845 c-36 -15 -59 -54 -69 -113 -10 -64 20 -113 136 -221 56
-51 108 -104 117 -117 21 -32 20 -70 -2 -94 -16 -18 -32 -20 -151 -20 -73 0
-139 -3 -148 -6 -10 -4 -16 -18 -16 -40 l0 -34 160 0 c177 0 208 8 234 58 8
15 17 45 21 65 13 67 -13 110 -145 242 -102 102 -120 124 -120 151 0 52 18 58
179 64 l146 5 3 38 3 37 -158 0 c-112 -1 -167 -5 -190 -15z"/>
</g>
</svg>
