<?xml version="1.0" standalone="no"?>
<!DOCTYPE svg PUBLIC "-//W3C//DTD SVG 20010904//EN"
 "http://www.w3.org/TR/2001/REC-SVG-20010904/DTD/svg10.dtd">
<svg version="1.0" xmlns="http://www.w3.org/2000/svg"
 width="610.000000pt" height="610.000000pt" viewBox="0 0 610.000000 610.000000"
 preserveAspectRatio="xMidYMid meet">
<metadata>
Created by potrace 1.15, written by Peter Selinger 2001-2017
</metadata>
<g transform="translate(0.000000,610.000000) scale(0.100000,-0.100000)"
fill="#303F9F" stroke="none">
<path d="M2900 6094 c-597 -44 -1063 -197 -1530 -502 -386 -253 -739 -627
-968 -1027 -181 -317 -302 -662 -363 -1028 -62 -381 -46 -815 45 -1197 129
-544 429 -1069 833 -1461 475 -460 1042 -739 1708 -841 129 -19 189 -23 425
-23 236 0 296 4 425 23 564 86 1046 295 1485 643 120 95 357 328 447 439 364
452 572 925 664 1510 20 126 23 182 23 425 0 254 -3 295 -27 445 -67 419 -194
773 -400 1115 -125 208 -352 500 -368 474 -5 -8 -9 -21 -9 -30 0 -41 -86 -276
-141 -386 -62 -127 -122 -217 -193 -292 -22 -24 -36 -45 -30 -48 6 -2 58 -31
114 -64 270 -160 427 -330 480 -520 34 -126 23 -232 -41 -369 -49 -106 -96
-169 -208 -280 -139 -139 -211 -177 -384 -205 -55 -9 -193 13 -267 42 -159 64
-286 158 -510 380 -96 95 -176 173 -177 173 -1 0 10 -35 23 -77 51 -161 84
-345 84 -473 0 -72 -4 -120 -10 -120 -13 0 -56 69 -92 149 -41 92 -125 347
-139 426 -7 36 -16 62 -21 57 -4 -4 -16 -46 -27 -92 -94 -422 -185 -630 -332
-763 -164 -148 -411 -195 -709 -136 -78 16 -165 54 -235 104 -96 69 -157 156
-197 285 -32 105 -32 296 1 420 33 125 82 244 140 342 28 48 51 89 51 91 0 2
-28 7 -63 10 -139 13 -269 88 -428 247 -165 165 -296 370 -385 601 -37 99 -74
257 -74 318 1 88 59 152 185 202 55 22 74 24 245 24 156 0 202 -4 290 -23 184
-40 342 -89 550 -170 208 -82 461 -214 565 -297 65 -51 63 -51 58 19 -6 73 23
191 55 219 39 36 132 -40 197 -161 24 -45 30 -50 38 -35 31 60 150 254 211
343 190 282 343 477 503 641 l84 86 -23 15 c-36 23 -216 107 -288 135 -278
106 -527 168 -793 198 -139 15 -405 25 -497 19z m-762 -4010 c72 -30 112 -89
112 -166 0 -28 0 -28 -70 -28 -63 0 -70 2 -70 20 0 49 -38 88 -80 82 -45 -7
-58 -14 -68 -37 -32 -71 -7 -104 126 -166 59 -27 117 -60 131 -72 80 -74 64
-253 -28 -314 -51 -34 -107 -46 -194 -41 -66 4 -84 9 -119 34 -54 38 -78 85
-78 151 l0 53 69 0 68 0 7 -50 c8 -59 32 -80 92 -80 34 0 47 5 63 26 33 42 24
115 -19 142 -10 6 -55 25 -100 43 -97 37 -155 88 -166 144 -3 20 -4 62 -2 94
8 118 84 181 216 181 43 0 88 -6 110 -16z m624 -44 c1 -28 2 -55 0 -60 -2 -6
-37 -10 -78 -10 l-74 0 -2 -297 -3 -298 -70 0 -70 0 -3 298 -2 297 -75 0 -75
0 0 60 0 60 224 0 224 0 4 -50z m309 -90 c59 -283 73 -349 77 -346 4 4 23 94
52 241 11 55 27 133 36 173 l16 72 104 0 104 0 0 -360 0 -361 -62 3 -63 3 -5
260 c-3 143 -8 253 -12 245 -4 -8 -16 -60 -28 -115 -11 -55 -35 -165 -53 -245
l-33 -145 -56 -3 -56 -3 -16 68 c-31 132 -75 329 -86 388 -24 121 -29 88 -30
-182 l0 -273 -65 0 -65 0 0 353 c0 195 3 357 7 361 4 4 52 5 107 4 l100 -3 27
-135z m798 101 c87 -62 92 -205 10 -274 l-37 -32 36 -20 c54 -30 77 -77 76
-156 0 -81 -25 -133 -83 -174 -38 -27 -51 -30 -114 -30 -113 1 -180 52 -193
148 -7 47 -7 47 23 47 26 0 30 -5 41 -44 25 -94 109 -128 200 -83 35 17 62 78
62 137 0 93 -39 135 -135 146 -50 6 -56 9 -53 28 2 17 12 22 49 26 87 10 127
64 116 157 -7 68 -42 98 -111 98 -66 0 -101 -27 -117 -92 -11 -41 -36 -62 -59
-48 -27 17 3 119 46 156 51 45 186 50 243 10z m471 7 c87 -44 116 -166 66
-274 -18 -39 -47 -71 -122 -136 -119 -102 -139 -124 -153 -161 -22 -57 -24
-56 147 -59 l157 -3 0 -25 0 -25 -189 -3 c-109 -1 -194 2 -199 7 -12 12 9 105
32 141 27 44 66 85 159 169 51 45 99 95 107 111 37 72 8 198 -51 220 -90 34
-163 -14 -180 -119 -6 -37 -9 -41 -35 -41 -27 0 -29 3 -29 38 1 74 62 159 125
175 53 13 122 6 165 -15z"/>
</g>
</svg>
